<svg xmlns="http://www.w3.org/2000/svg" width="256" height="256" viewBox="0 0 100 100"><circle cx="50" cy="50" r="49" fill="#AB1E03"/><g transform="translate(50 51) scale(0.74) translate(-50 -50)"><path d="M70.21 15.85 87.79 86.15Q89 91 84 90.83L65 90.17Q60 90 60.57 85.03L68.43 15.97Q69 11 70.21 15.85Z" fill="#7A1602"/><path d="M27 11.88 63 11.12Q69 11 68.32 16.96L60.68 84.04Q60 90 54 90H18Q12 90 12.69 84.04L20.31 17.96Q21 12 27 11.88Z" fill="#fff"/><circle cx="42" cy="32" r="9.5" fill="#AB1E03"/><g stroke="#AB1E03" stroke-width="2.5" stroke-linecap="round"><path d="M25 53 56 52.5"/><path d="M23 65 54 64.5"/><path d="M23 77 41 76.5"/></g></g></svg>
